# xmcd
#
# Track frame offsets: 
#        150
#        13318
#        26497
#        37811
#        50243
#        64220
#        76325
#        90689
#        101917
#        115815
#        127329
#        139485
#        150140
#        160626
#        173836
#        186985
#        196779
#        211518
#        223526
#        236169
#        248119
#        262326
#        274092
#        286192
#        296928
#        309206
#        321293
#        333728
#
# Disc length: 4619 seconds
#
# Revision: 1
# Processed by: cddbd v1.5.1PL2 Copyright (c) Steve Scherf et al.
# Submitted via: ExactAudioCopy v0.95a5
#
DISCID=a712091c
DTITLE=T-Bone Walker - I Got The Blues
DYEAR=1900
DGENRE=Blues
TTITLE0=I Got The Blues
TTITLE1=Love Is Just A Gamble
TTITLE2=Strollin' With Bones
TTITLE3=Life Is Too Short
TTITLE4=Street Walking Woman
TTITLE5=Rail Road Station Blues
TTITLE6=Cold Cold Feeling
TTITLE7=Everytime
TTITLE8=Get These Blues Off Me
TTITLE9=The Hustle Is On
TTITLE10=I Get So Weary
TTITLE11=News For You Baby
TTITLE12=The Sun Went Down
TTITLE13=High Society
TTITLE14=You Don't Love Me
TTITLE15=Party Girl
TTITLE16=I Got The Blues Again
TTITLE17=Tell Me What The Reason
TTITLE18=Blues I A Woman
TTITLE19=You Don't Understand
TTITLE20=Through With Women
TTITLE21=Evel Hearted Woman
TTITLE22=Alimony Blues
TTITLE23=I'm About To Loose My Mind
TTITLE24=Baby Broke My Heart
TTITLE25=Got No Use For You
TTITLE26=Bye Bye Baby
TTITLE27=Blue Mood
EXTD=ID3G: 0
EXTT0=
EXTT1=
EXTT2=
EXTT3=
EXTT4=
EXTT5=
EXTT6=
EXTT7=
EXTT8=
EXTT9=
EXTT10=
EXTT11=
EXTT12=
EXTT13=
EXTT14=
EXTT15=
EXTT16=
EXTT17=
EXTT18=
EXTT19=
EXTT20=
EXTT21=
EXTT22=
EXTT23=
EXTT24=
EXTT25=
EXTT26=
EXTT27=
PLAYORDER=
